<svg width="683" height="119" viewBox="0 0 683 119" fill="none" xmlns="http://www.w3.org/2000/svg">
<path d="M55.7288 63.0819L41.7603 43.1473C49.8567 39.692 54.5722 32.8699 54.5722 23.5671C54.5722 9.6572 44.1625 1.06317 27.5248 1.06317H0.566406V63.0819H14.9798V45.8052H28.2366L40.2478 63.0819H55.7288ZM39.9809 23.5671C39.9809 30.3006 35.5323 34.3761 26.7241 34.3761H14.9798V12.7581H26.7241C35.5323 12.7581 39.9809 16.7451 39.9809 23.5671Z" fill="#343434"/>
<path d="M96.2422 63.0819H110.656V1.06317H96.2422V63.0819Z" fill="#343434"/>
<path d="M200.892 1.06317L181.675 45.3623L162.724 1.06317H147.153L174.023 63.0819H250.667V1.06317H200.892Z" fill="#343434"/>
<path d="M264.992 51.5641V37.2112H293.907V26.0479H264.992V12.5809H297.733V1.06317H250.667V63.0819H298.89V51.5641H264.992Z" fill="#343434"/>
<path d="M395.771 63.0819L381.802 43.1473C389.899 39.692 394.614 32.8699 394.614 23.5671C394.614 9.6572 384.205 1.06317 367.567 1.06317H340.609V63.0819H355.022V45.8052H368.279L380.29 63.0819H395.771ZM380.023 23.5671C380.023 30.3006 375.574 34.3761 366.766 34.3761H355.022V12.7581H366.766C375.574 12.7581 380.023 16.7451 380.023 23.5671Z" fill="#343434"/>
<path d="M483.35 12.5809V1.06317H436.284V63.0819H450.698V40.4894H479.525V28.9716H450.698V12.5809H483.35Z" fill="#343434"/>
<path d="M552.912 64.1451C572.485 64.1451 586.988 50.5895 586.988 32.0725C586.988 13.5555 572.485 0 552.912 0C533.249 0 518.836 13.6441 518.836 32.0725C518.836 50.5009 533.249 64.1451 552.912 64.1451ZM552.912 51.9185C541.79 51.9185 533.427 43.8561 533.427 32.0725C533.427 20.289 541.79 12.2265 552.912 12.2265C564.033 12.2265 572.396 20.289 572.396 32.0725C572.396 43.8561 564.033 51.9185 552.912 51.9185Z" fill="#343434"/>
<path d="M681.686 63.0819L658.464 31.0094L680.173 1.06317H664.603L650.546 21.175L636.221 1.06317H619.85L641.737 31.5409L618.694 63.0819H635.242L650.012 41.5525L665.048 63.0819H681.686Z" fill="#343434"/>
<path d="M1.85407 110.673H11.2579C15.5989 110.673 18.2815 108.302 18.2815 105.015C18.2815 102.196 16.2037 100.352 13.6381 100.254V100.059C15.9501 99.6009 17.5011 97.8938 17.5011 95.6891C17.5011 92.6456 15.0819 90.6946 10.5165 90.6946H1.85407V110.673ZM7.27786 106.342V102.127H9.89221C11.5408 102.127 12.5456 102.908 12.5456 104.313C12.5456 105.649 11.6384 106.342 9.81417 106.342H7.27786ZM7.27786 98.7717V94.9477H9.58005C10.9262 94.9477 11.9213 95.6306 11.9213 96.8597C11.9213 98.0889 10.9262 98.7717 9.50201 98.7717H7.27786ZM42.4087 110.673H47.8325V104.078H49.7054L53.2173 110.673H59.1093L55.0512 103.22C57.1778 102.196 58.4459 100.254 58.4459 97.4841C58.4459 93.2309 55.4707 90.6946 51.0321 90.6946H42.4087V110.673ZM47.8325 99.8643V95.0258H49.7445C51.6467 95.0258 52.788 95.7672 52.788 97.4841C52.788 99.1912 51.6467 99.8643 49.7445 99.8643H47.8325ZM88.153 110.673L89.3041 106.849H95.8985L97.0496 110.673H102.903L96.3082 90.6946H88.8943L82.3 110.673H88.153ZM90.5332 102.791L92.5232 96.1964H92.6793L94.6693 102.791H90.5332ZM144.318 90.6946H138.894V101.152H138.738L131.637 90.6946H127.032V110.673H132.456V100.176H132.573L139.792 110.673H144.318V90.6946ZM176.776 110.673C182.863 110.673 186.726 106.927 186.726 100.684C186.726 94.4405 182.863 90.6946 176.698 90.6946H169.089V110.673H176.776ZM174.513 106.068V95.2989H176.425C179.546 95.2989 181.263 96.5086 181.263 100.684C181.263 104.859 179.546 106.068 176.581 106.068H174.513ZM244.543 90.6946H239.119V110.673H244.543V90.6946ZM286.605 90.6946H281.181V101.152H281.025L273.923 90.6946H269.319V110.673H274.742V100.176H274.859L282.078 110.673H286.605V90.6946ZM310.829 95.0648H316.838V110.673H322.184V95.0648H328.193V90.6946H310.829V95.0648ZM352.44 110.673H366.799V106.303H357.864V102.869H366.097V98.4986H357.864V95.0648H366.838V90.6946H352.44V110.673ZM391.734 110.673H405.235V106.303H397.157V90.6946H391.734V110.673ZM429.632 110.673H443.133V106.303H435.056V90.6946H429.632V110.673ZM472.955 90.6946H467.531V110.673H472.955V90.6946ZM510.705 97.289H516.187C515.768 93.2796 512.129 90.4214 507.408 90.4214C502.023 90.4214 497.653 94.1283 497.653 100.723C497.653 107.044 501.613 110.946 507.447 110.946C512.676 110.946 516.421 107.746 516.421 102.284V99.5131H507.564V103.376H511.193C511.144 105.112 509.915 106.225 507.486 106.225C504.676 106.225 503.233 104.156 503.233 100.645C503.233 97.1816 504.793 95.1428 507.525 95.1428C509.222 95.1428 510.373 95.9233 510.705 97.289ZM541.156 110.673H555.515V106.303H546.58V102.869H554.813V98.4986H546.58V95.0648H555.554V90.6946H541.156V110.673ZM597.736 90.6946H592.312V101.152H592.156L585.054 90.6946H580.45V110.673H585.873V100.176H585.991L593.209 110.673H597.736V90.6946ZM641.158 98.1864C640.729 93.2309 637.1 90.4214 632.066 90.4214C626.682 90.4214 622.428 94.0113 622.428 100.684C622.428 107.327 626.565 110.946 632.066 110.946C637.919 110.946 640.885 106.888 641.158 103.493L635.656 103.454C635.383 105.161 634.174 106.225 632.184 106.225C629.54 106.225 628.008 104.352 628.008 100.684C628.008 97.2109 629.491 95.1428 632.223 95.1428C634.31 95.1428 635.5 96.372 635.656 98.1864H641.158ZM665.824 110.673H680.184V106.303H671.248V102.869H679.481V98.4986H671.248V95.0648H680.223V90.6946H665.824V110.673Z" fill="#343434"/>
</svg>
